<svg width="18" height="18" viewBox="0 0 18 18" fill="none" xmlns="http://www.w3.org/2000/svg">
<path fill-rule="evenodd" clip-rule="evenodd" d="M16.7034 8.64826C17.0509 8.64826 17.3334 8.36576 17.3334 8.01826V5.87743C17.3334 2.65993 15.3251 0.666595 12.1276 0.666595H5.87758C2.66008 0.666595 0.666748 2.65993 0.666748 5.87993V12.1299C0.666748 15.3399 2.66008 17.3333 5.87758 17.3333H12.1301C15.3401 17.3333 17.3334 15.3399 17.3309 12.1274C17.3309 11.7758 17.0451 11.4899 16.6934 11.4899C16.3409 11.4899 16.0559 11.7758 16.0559 12.1274C16.0559 14.6558 14.6634 16.0558 12.1276 16.0558H5.87758C3.34175 16.0558 1.94175 14.6558 1.94175 12.1274V5.87743C1.94175 3.3416 3.34175 1.9416 5.88008 1.9416H12.1301C14.6667 1.9416 16.0584 3.33326 16.0584 5.87743V7.99576V7.99743C16.0592 8.3491 16.3442 8.63326 16.6959 8.63326V8.64826H16.7034ZM7.0168 8.38438H6.2107C5.8601 8.37555 5.56665 8.64896 5.55074 8.99957L5.55427 9.02196C5.55427 9.36608 5.82651 9.64775 6.17004 9.65894H6.97261C7.3244 9.67132 7.61961 9.39614 7.63258 9.04376C7.64377 8.69198 7.36918 8.39617 7.0168 8.38438ZM9.17737 12.4011C8.83148 12.4005 8.54805 12.1242 8.5398 11.7777L8.53921 11.7335L8.53862 6.10079C8.54922 5.74606 8.82971 5.4585 9.18385 5.44024C9.5321 5.43611 9.8173 5.71424 9.82143 6.06249C9.82202 6.06544 9.82202 6.06779 9.82202 6.07133L9.82143 8.26984L11.8219 8.26925C12.1731 8.2775 12.4548 8.5627 12.4589 8.91449C12.4589 8.97813 12.4501 9.04118 12.4307 9.10187C12.3552 9.38118 12.103 9.57445 11.8137 9.57504L9.82261 9.57445L9.82202 11.7411C9.83203 12.0965 9.55096 12.3917 9.19564 12.4005C9.19228 12.4012 9.18893 12.4011 9.18547 12.401C9.18285 12.4009 9.18016 12.4009 9.17737 12.4011Z" fill="#7B6F82"/>
</svg>
