<svg width="20" height="20" viewBox="0 0 20 20" fill="none" xmlns="http://www.w3.org/2000/svg">
<path fill-rule="evenodd" clip-rule="evenodd" d="M7.01176 19.232C7.01176 19.654 6.66876 19.997 6.24676 19.997C2.39176 20 -0.000244141 17.608 -0.000244141 13.756V6.253C-0.000244141 2.392 2.39176 0 6.24376 0H13.7438C17.6068 0 19.9998 2.392 19.9998 6.253V13.753C19.9998 17.59 17.6068 20 13.7468 20H11.1778C10.7608 20 10.4218 19.661 10.4218 19.244V19.235H10.4388C10.4388 18.813 10.7808 18.471 11.2028 18.47H11.2048H13.7468C16.7998 18.47 18.4698 16.8 18.4698 13.756V6.256C18.4698 3.21 16.7898 1.53 13.7468 1.53H6.24676C3.21276 1.53 1.53276 3.21 1.53276 6.253V13.753C1.53276 16.796 3.21276 18.467 6.24676 18.467C6.66876 18.467 7.01176 18.81 7.01176 19.232ZM10.7497 14.0859L10.7497 7.7299L13.2167 10.2069C13.5087 10.5009 13.9827 10.5019 14.2767 10.2089C14.5717 9.9169 14.5697 9.4419 14.2787 9.1489L10.5307 5.3849C10.5307 5.3839 10.5307 5.3839 10.5297 5.3839C10.4617 5.3149 10.3787 5.2599 10.2867 5.2219C10.1957 5.1839 10.0987 5.1639 10.0007 5.1639H9.99966C9.99267 5.1639 9.98684 5.16563 9.98092 5.16739C9.97583 5.16891 9.97067 5.17044 9.96466 5.1709C9.87966 5.1749 9.79466 5.1889 9.71366 5.2219C9.63166 5.2559 9.55966 5.3069 9.49366 5.3659C9.49042 5.36914 9.48675 5.37131 9.48305 5.37349C9.47876 5.37603 9.47442 5.3786 9.47066 5.3829C9.40066 5.4519 9.34566 5.5349 9.30766 5.6259C9.26966 5.7189 9.24966 5.8149 9.24966 5.9139L9.24966 14.0859C9.24966 14.4999 9.58566 14.8359 9.99966 14.8359C10.4137 14.8359 10.7497 14.4999 10.7497 14.0859ZM6.99866 7.8642L5.72066 9.1482C5.57466 9.2952 5.50166 9.4862 5.50166 9.6772C5.50166 9.8702 5.57466 10.0622 5.72266 10.2102C6.01666 10.5022 6.49066 10.5012 6.78266 10.2072L8.06066 8.9232C8.35266 8.6292 8.35266 8.1552 8.05966 7.8622C7.76566 7.5702 7.29066 7.5712 6.99866 7.8642Z" fill="#FF928B"/>
</svg>
