<svg width="20" height="20" viewBox="0 0 20 20" fill="none" xmlns="http://www.w3.org/2000/svg">
<path fill-rule="evenodd" clip-rule="evenodd" d="M12.9878 0.767908C12.9878 0.345908 13.3308 0.00290845 13.7528 0.00290845C17.6078 -9.15527e-05 19.9998 2.39191 19.9998 6.24391V13.7469C19.9998 17.6079 17.6078 19.9999 13.7558 19.9999H6.25576C2.39276 19.9999 -0.000244141 17.6079 -0.000244141 13.7469V6.24691C-0.000244141 2.40991 2.39276 -9.15527e-05 6.25276 -9.15527e-05H8.82176C9.23876 -9.15527e-05 9.57776 0.338908 9.57776 0.755908V0.764908H9.56076C9.56076 1.18691 9.21876 1.52891 8.79676 1.52991H8.79476H6.25276C3.19976 1.52991 1.52976 3.19991 1.52976 6.24391V13.7439C1.52976 16.7899 3.20976 18.4699 6.25276 18.4699H13.7528C16.7868 18.4699 18.4668 16.7899 18.4668 13.7469V6.24691C18.4668 3.20391 16.7868 1.53291 13.7528 1.53291C13.3308 1.53291 12.9878 1.18991 12.9878 0.767908ZM9.24986 5.91401V12.27L6.78286 9.79301C6.49086 9.49901 6.01686 9.49801 5.72286 9.79101C5.42786 10.083 5.42986 10.558 5.72086 10.851L9.46886 14.615C9.46886 14.616 9.46886 14.616 9.46986 14.616C9.53786 14.685 9.62086 14.74 9.71286 14.778C9.80386 14.816 9.90086 14.836 9.99886 14.836H9.99986C10.0068 14.836 10.0127 14.8343 10.0186 14.8325C10.0237 14.831 10.0288 14.8295 10.0349 14.829C10.1199 14.825 10.2049 14.811 10.2859 14.778C10.3679 14.744 10.4399 14.693 10.5059 14.634C10.5091 14.6308 10.5128 14.6286 10.5165 14.6264L10.5165 14.6264C10.5208 14.6239 10.5251 14.6213 10.5289 14.617C10.5989 14.548 10.6539 14.465 10.6919 14.374C10.7299 14.281 10.7499 14.185 10.7499 14.086V5.91401C10.7499 5.50001 10.4139 5.16401 9.99986 5.16401C9.58586 5.16401 9.24986 5.50001 9.24986 5.91401ZM13.0009 12.1357L14.2789 10.8517C14.4249 10.7047 14.4979 10.5137 14.4979 10.3227C14.4979 10.1297 14.4249 9.93771 14.2769 9.78971C13.9829 9.49771 13.5089 9.49871 13.2169 9.79271L11.9389 11.0767C11.6469 11.3707 11.6469 11.8447 11.9399 12.1377C12.2339 12.4297 12.7089 12.4287 13.0009 12.1357Z" fill="#FF928B"/>
</svg>
