<svg width="6" height="12" viewBox="0 0 6 12" fill="none" xmlns="http://www.w3.org/2000/svg">
<path fill-rule="evenodd" clip-rule="evenodd" d="M0.162776 0.828516C-0.0536143 1.04286 -0.0551015 1.39035 0.164263 1.6047L3.40789 4.78114L3.46519 4.83008C3.68443 4.99314 3.99782 4.9761 4.19686 4.77894C4.30468 4.67213 4.35971 4.53168 4.35971 4.39195C4.35971 4.25149 4.30468 4.1103 4.19537 4.00349L0.951746 0.826321L0.894443 0.777383C0.675201 0.614316 0.361816 0.631361 0.162776 0.828516ZM0.113908 10.4522C-0.0534728 10.6673 -0.0356933 10.9757 0.162665 11.1722C0.379799 11.3865 0.733013 11.3873 0.951634 11.1729L5.83566 6.38852L5.88579 6.33247C5.96179 6.23487 6 6.11772 6 6.00006C6 5.86034 5.94497 5.71988 5.83715 5.61307C5.62002 5.39799 5.2668 5.39726 5.04818 5.6116L0.164152 10.396L0.113908 10.4522Z" fill="#FF928B"/>
</svg>
