<svg width="18" height="18" viewBox="0 0 18 18" fill="none" xmlns="http://www.w3.org/2000/svg">
<path fill-rule="evenodd" clip-rule="evenodd" d="M9.0057 0.666656C10.3538 0.666656 11.6968 0.999212 12.8901 1.62835C16.9528 3.77197 18.5152 8.82123 16.373 12.8853C14.9119 15.6566 12.0351 17.3333 8.99616 17.3333C8.40246 17.3333 7.80289 17.2695 7.20626 17.1373C6.87014 17.0624 6.65806 16.7291 6.73218 16.3929C6.8063 16.0567 7.13874 15.846 7.47705 15.9187C10.5806 16.6088 13.7847 15.1192 15.2693 12.3032C17.0907 8.8484 15.7624 4.55454 12.3081 2.73246C11.2939 2.19729 10.152 1.91466 9.00497 1.91466H8.9969C5.09198 1.91466 1.91433 5.09265 1.91433 8.99889C1.91286 10.1368 2.19026 11.2695 2.71645 12.276L2.87643 12.5887C3.07237 12.9558 3.11567 13.4117 2.98871 13.8242C2.81332 14.2867 2.66728 14.7368 2.54692 15.1846C3.01513 15.0436 3.58682 14.8359 3.99998 14.6854L4.16951 14.6244C4.49021 14.5048 4.85054 14.6744 4.96796 14.9988C5.08538 15.3226 4.91732 15.6808 4.59368 15.7976L4.42636 15.8585L4.39789 15.8688C3.78268 16.0917 2.95431 16.3919 2.39208 16.5177C2.34364 16.528 2.29154 16.5346 2.24384 16.5331C1.86076 16.5331 1.62739 16.3782 1.49896 16.2476C1.30155 16.0471 1.20761 15.766 1.21862 15.4121C1.22009 15.3718 1.22523 15.3299 1.23477 15.2895C1.38301 14.6582 1.57602 14.0283 1.80939 13.4183C1.82627 13.3588 1.81599 13.2509 1.76829 13.1606L1.60757 12.8486C0.991857 11.6696 0.665285 10.3357 0.666753 8.99816C0.666753 4.40405 4.40361 0.666656 8.99616 0.666656H9.0057ZM4.33632 8.99926C4.33632 8.45234 4.78031 8.0082 5.32704 8.0082C5.87378 8.0082 6.31777 8.45234 6.31777 8.99926C6.31777 9.54544 5.87378 9.98958 5.32704 9.98958C4.78031 9.98958 4.33632 9.54544 4.33632 8.99926ZM9.98718 8.99896C9.98718 8.45278 9.54319 8.0079 8.99646 8.0079C8.44973 8.0079 8.00573 8.45278 8.00573 8.99896C8.00573 9.54514 8.44973 9.99002 8.99646 9.99002C9.54319 9.99002 9.98718 9.54514 9.98718 8.99896ZM12.6658 8.0079C13.2125 8.0079 13.6565 8.45278 13.6565 8.99896C13.6565 9.54514 13.2125 9.99002 12.6658 9.99002C12.1191 9.99002 11.6751 9.54514 11.6751 8.99896C11.6751 8.45278 12.1191 8.0079 12.6658 8.0079Z" fill="#2FE863"/>
</svg>
