<svg width="20" height="20" viewBox="0 0 20 20" fill="none" xmlns="http://www.w3.org/2000/svg">
<path fill-rule="evenodd" clip-rule="evenodd" d="M0.241711 7.81748C1.26279 3.24577 5.31703 -0.00343702 9.99603 1.5232e-05C10.7279 -0.000908807 11.4575 0.0815621 12.1707 0.245836C14.769 0.817784 17.0313 2.40572 18.4542 4.65634C19.8771 6.90697 20.3425 9.6336 19.7469 12.2296C19.6951 12.5175 19.4869 12.7524 19.2074 12.838C18.928 12.9237 18.6242 12.8459 18.4201 12.6364C18.2161 12.4269 18.1461 12.1208 18.2387 11.8433C19.1745 7.65892 16.8162 3.43965 12.7647 2.04942C8.71321 0.65919 4.26573 2.54316 2.44111 6.42255C0.616499 10.3019 1.999 14.9345 5.65021 17.1759C9.30142 19.4172 14.0522 18.5495 16.6779 15.1619C16.9599 14.9004 17.3901 14.8836 17.6918 15.1221C17.9934 15.3606 18.0767 15.7835 17.888 16.1188C15.0247 19.8239 9.9761 21.0422 5.74127 19.05C1.50644 17.0578 -0.779365 12.3892 0.241711 7.81748ZM10.1322 12.4177C9.9601 12.0548 10.0908 11.6204 10.4345 11.4131L11.022 11.1234L12.0041 7.98041L8.935 8.94613L7.53199 13.4324C7.4058 13.8394 6.97419 14.0673 6.56742 13.9416C6.37013 13.881 6.20529 13.7438 6.10973 13.5607C6.01416 13.3776 5.99583 13.1638 6.05883 12.9671L7.58461 8.08576C7.66366 7.84663 7.85301 7.66032 8.0932 7.58534L12.9687 6.05774C13.1161 6.0048 13.2772 6.0048 13.4246 6.05774C13.6213 6.11636 13.7861 6.25182 13.8817 6.43353C13.9774 6.61524 13.996 6.82789 13.9332 7.02346L12.3724 11.9135C12.3102 12.1163 12.1675 12.2845 11.9778 12.3788L11.1009 12.8178C10.7233 12.9535 10.3044 12.7805 10.1322 12.4177Z" fill="#A390AE"/>
</svg>
