<svg width="18" height="16" viewBox="0 0 18 16" fill="none" xmlns="http://www.w3.org/2000/svg">
<path fill-rule="evenodd" clip-rule="evenodd" d="M13.6006 0.335597C14.9458 0.753921 16.0643 1.7148 16.6962 2.99486C17.4351 4.54632 17.5357 6.33402 16.9756 7.96133C16.4602 9.45939 15.6151 10.8174 14.505 11.9315C13.7772 12.6796 12.9929 13.3683 12.1594 13.9915L12.1153 14.0289C11.8384 14.2154 11.466 14.1422 11.2771 13.8642C11.181 13.7299 11.1424 13.5617 11.1701 13.398C11.1978 13.2343 11.2895 13.0889 11.4241 12.9952C12.2062 12.4059 12.9436 11.7573 13.63 11.0551C14.6185 10.0823 15.3734 8.89029 15.8359 7.5718C16.2808 6.25798 16.1907 4.8174 15.5859 3.57166C15.0992 2.59168 14.2416 1.85597 13.2109 1.53414C11.8962 1.11533 10.4639 1.36922 9.36528 2.21581C9.14688 2.38063 8.84839 2.38063 8.62999 2.21581C7.5319 1.36804 6.099 1.11404 4.78437 1.53414C3.74672 1.84886 2.88061 2.58235 2.3873 3.56417C1.79613 4.80898 1.71156 6.2413 2.152 7.54933C2.61647 8.86465 3.37115 10.0538 4.3579 11.0251C5.81592 12.4494 7.42369 13.7054 9.15205 14.7705C9.37187 14.9259 9.46854 15.2077 9.39151 15.4687C9.31448 15.7298 9.08127 15.9106 8.81381 15.9167C8.69324 15.9174 8.5753 15.8808 8.47557 15.8118C6.67514 14.7025 5.00072 13.3936 3.48289 11.909C2.36669 10.7986 1.51848 9.43964 1.00494 7.93885C0.464257 6.3138 0.575245 4.53699 1.31376 2.99486C1.94566 1.7148 3.06421 0.753921 4.40937 0.335597C5.95597 -0.151068 7.63397 0.0732142 9.00499 0.94985C10.376 0.0732142 12.054 -0.151068 13.6006 0.335597ZM12.9977 6.07362C12.9669 5.38136 12.5144 4.78262 11.8653 4.57544C11.624 4.42194 11.5168 4.12035 11.6057 3.84503C11.6946 3.5697 11.9567 3.39188 12.2403 3.41435C13.3367 3.76695 14.1171 4.75705 14.2183 5.9238C14.239 6.08693 14.1946 6.25172 14.0951 6.38126C13.9956 6.5108 13.8493 6.59427 13.6888 6.61296C13.3521 6.65729 13.0434 6.41639 12.9977 6.07362Z" fill="#E83A2F"/>
</svg>
