<svg width="18" height="18" viewBox="0 0 18 18" fill="none" xmlns="http://www.w3.org/2000/svg">
<path fill-rule="evenodd" clip-rule="evenodd" d="M15.2533 0.731068C15.8242 0.565005 16.4426 0.725197 16.8617 1.1521C17.2809 1.57816 17.4359 2.19963 17.2651 2.77498L16.2242 6.27656C16.125 6.60952 15.7784 6.79823 15.4467 6.69926C15.1158 6.59946 14.9275 6.24888 15.0267 5.91676L16.0675 2.41434C16.1259 2.21808 16.0217 2.08557 15.9742 2.03776C15.9267 1.98912 15.7934 1.88344 15.6009 1.93964L2.19122 5.83876C1.97788 5.90082 1.93122 6.07946 1.92122 6.15327C1.91205 6.22708 1.90872 6.41159 2.09872 6.52901L4.92049 8.26512C5.21466 8.44628 5.308 8.83376 5.12716 9.13066C5.00966 9.32356 4.80465 9.43091 4.59381 9.43091C4.48297 9.43091 4.37047 9.40156 4.2688 9.33866L1.44703 7.60171C0.887846 7.25784 0.594503 6.63888 0.682006 5.98553C0.769509 5.33134 1.21536 4.81219 1.84455 4.62935L15.2533 0.731068ZM14.0236 9.29102C14.1236 8.95721 14.4711 8.76767 14.8019 8.86831C15.1328 8.96812 15.3211 9.3187 15.2219 9.65166L13.2869 16.1633C13.0994 16.7932 12.581 17.236 11.9335 17.3191C11.861 17.3291 11.7893 17.3333 11.7176 17.3333C11.1526 17.3333 10.6359 17.0431 10.3351 16.5449L6.91832 10.8871C6.76914 10.6388 6.80664 10.3201 7.01082 10.1155L11.8618 5.23338C12.106 4.98764 12.501 4.98764 12.7452 5.23338C12.9894 5.47912 12.9894 5.8775 12.7452 6.12324L8.24169 10.6564L11.4035 15.8916C11.5185 16.082 11.6993 16.0803 11.7743 16.0719C11.8477 16.0619 12.0252 16.0166 12.0885 15.8035L14.0236 9.29102Z" fill="#2F84E8"/>
</svg>
